<?xml version="1.0" encoding="UTF-8"?>
<!-- Created with Inkscape (http://www.inkscape.org/) -->
<svg id="SVGRoot" width="30" height="30" version="1.1" viewBox="0 0 30 29.999999" xmlns="http://www.w3.org/2000/svg" xmlns:cc="http://creativecommons.org/ns#" xmlns:dc="http://purl.org/dc/elements/1.1/" xmlns:rdf="http://www.w3.org/1999/02/22-rdf-syntax-ns#">
 <metadata>
  <rdf:RDF>
   <cc:Work rdf:about="">
    <dc:format>image/svg+xml</dc:format>
    <dc:type rdf:resource="http://purl.org/dc/dcmitype/StillImage"/>
    <dc:title/>
   </cc:Work>
  </rdf:RDF>
 </metadata>
 <g transform="matrix(1.399 0 0 1.399 -9.2763 1.535)">
  <path d="m22.922 10.883h-2.276c-1.3906 0-2.0261 0.63533-2.0261 2.026v2.276c0 1.3907 0.63543 2.0209 2.0261 2.0209h2.276c1.3906 0 2.0208-0.63027 2.0208-2.0209v-2.276c0-1.3907-0.6302-2.026-2.0208-2.026m-8.8542 0h-2.276c-1.3906 0-2.0208 0.63533-2.0208 2.026v2.276c0 1.3907 0.6302 2.0209 2.0208 2.0209h2.276c1.3906 0 2.026-0.63027 2.026-2.0209v-2.276c0-1.3907-0.63541-2.026-2.026-2.026m8.8542-8.8489h-2.276c-1.3906 0-2.0261 0.63533-2.0261 2.026v2.276c0 1.3907 0.63543 2.0208 2.0261 2.0208h2.276c1.3906 0 2.0208-0.63013 2.0208-2.0208v-2.276c0-1.3907-0.6302-2.026-2.0208-2.026m-8.8542 0h-2.276c-1.3906 0-2.0208 0.63533-2.0208 2.026v2.276c0 1.3907 0.6302 2.0208 2.0208 2.0208h2.276c1.3906 0 2.026-0.63013 2.026-2.0208v-2.276c0-1.3907-0.63541-2.026-2.026-2.026"/>
 </g>
</svg>
