<?xml version="1.0" encoding="UTF-8"?>
<!-- Created with Inkscape (http://www.inkscape.org/) -->
<svg id="SVGRoot" width="30" height="30" version="1.1" viewBox="0 0 30 29.999999" xmlns="http://www.w3.org/2000/svg" xmlns:cc="http://creativecommons.org/ns#" xmlns:dc="http://purl.org/dc/elements/1.1/" xmlns:rdf="http://www.w3.org/1999/02/22-rdf-syntax-ns#">
 <metadata>
  <rdf:RDF>
   <cc:Work rdf:about="">
    <dc:format>image/svg+xml</dc:format>
    <dc:type rdf:resource="http://purl.org/dc/dcmitype/StillImage"/>
    <dc:title/>
   </cc:Work>
  </rdf:RDF>
 </metadata>
 <g transform="matrix(.83998 0 0 .83998 .41985 6.9198)">
  <path d="m24.688 13.781h-0.89062c-1.7813 0-3.1458-0.88547-4.4115-2.198-0.13021 0.16667-0.25521 0.33333-0.38542 0.5052-0.55729 0.7292-1.1562 1.5156-1.8177 2.2917 1.7135 1.6771 3.7917 2.9427 6.6146 2.9427h0.89062v3.0365l5.3125-4.5521-5.3125-4.5521zm-13.135-6.1147c0.20312-0.2552 0.40104-0.5208 0.60417-0.7864 0.49479-0.65107 1.0156-1.3385 1.5833-2.0156-1.6719-1.5625-3.6875-2.7136-6.3802-2.7136h-2.6458v3.5417h2.6458c1.6771 0 2.9896 0.7864 4.1927 1.9739m12.245-2.2292h0.89062v2.5417l5.3125-4.5521-5.3125-4.5468v3.0156h-0.89062c-4.6719 0-7.3021 3.4636-9.6302 6.5156-2.0833 2.7448-3.8906 5.1199-6.8073 5.1199h-2.6458v3.5364h2.6458c4.6719 0 7.3021-3.4583 9.6302-6.5104 2.0885-2.75 3.8906-5.1199 6.8073-5.1199"/>
 </g>
</svg>
