<?xml version="1.0" encoding="UTF-8"?>
<!-- Created with Inkscape (http://www.inkscape.org/) -->
<svg id="SVGRoot" width="30" height="30" version="1.1" viewBox="0 0 30 29.999999" xmlns="http://www.w3.org/2000/svg" xmlns:cc="http://creativecommons.org/ns#" xmlns:dc="http://purl.org/dc/elements/1.1/" xmlns:rdf="http://www.w3.org/1999/02/22-rdf-syntax-ns#">
 <metadata>
  <rdf:RDF>
   <cc:Work rdf:about="">
    <dc:format>image/svg+xml</dc:format>
    <dc:type rdf:resource="http://purl.org/dc/dcmitype/StillImage"/>
    <dc:title/>
   </cc:Work>
  </rdf:RDF>
 </metadata>
 <g transform="translate(-2.3568 5.3803)">
  <path d="m17.357 14.24c-2.5521 0-4.6198-2.0677-4.6198-4.6199 0-2.552 2.0677-4.6197 4.6198-4.6197 2.5521 0 4.6198 2.0677 4.6198 4.6197 0 2.5521-2.0677 4.6199-4.6198 4.6199m8.5781-4.6199c0-1.3229 0.81771-2.3697 2.0417-3.0885-0.21875-0.7396-0.51562-1.4479-0.875-2.1145-1.375 0.35933-2.4896-0.17707-3.4271-1.1145-0.9375-0.9376-1.224-2.0521-0.86458-3.4272-0.66146-0.35933-1.3698-0.65613-2.1094-0.87493-0.71875 1.2292-2.0208 2.0416-3.3438 2.0416-1.3229 0-2.625-0.8124-3.3437-2.0416-0.73958 0.2188-1.4479 0.5156-2.1146 0.87493 0.36458 1.3751 0.07812 2.4896-0.85938 3.4272-0.9375 0.93747-2.0521 1.4739-3.4271 1.1145-0.35937 0.66667-0.65625 1.3749-0.875 2.1145 1.224 0.7188 2.0417 1.7656 2.0417 3.0885 0 1.3229-0.81771 2.6251-2.0417 3.3437 0.21875 0.7396 0.51563 1.448 0.875 2.1147 1.375-0.36467 2.4896-0.07867 3.4271 0.85933 0.9375 0.93747 1.224 2.0521 0.85938 3.4323 0.66667 0.35427 1.375 0.65107 2.1146 0.86987 0.71875-1.224 2.0208-2.0417 3.3437-2.0417 1.3229 0 2.625 0.81773 3.3438 2.0417 0.73958-0.2188 1.4479-0.5156 2.1146-0.87507-0.36458-1.3749-0.07812-2.4896 0.85938-3.4271 0.9375-0.93747 2.0521-1.474 3.4271-1.1145 0.35938-0.66667 0.65625-1.3751 0.875-2.1147-1.224-0.71867-2.0417-1.7656-2.0417-3.0885"/>
 </g>
</svg>
