<?xml version="1.0" encoding="UTF-8"?>
<!-- Created with Inkscape (http://www.inkscape.org/) -->
<svg id="SVGRoot" width="30" height="30" version="1.1" viewBox="0 0 30 29.999999" xmlns="http://www.w3.org/2000/svg" xmlns:cc="http://creativecommons.org/ns#" xmlns:dc="http://purl.org/dc/elements/1.1/" xmlns:rdf="http://www.w3.org/1999/02/22-rdf-syntax-ns#">
 <metadata>
  <rdf:RDF>
   <cc:Work rdf:about="">
    <dc:format>image/svg+xml</dc:format>
    <dc:type rdf:resource="http://purl.org/dc/dcmitype/StillImage"/>
    <dc:title/>
   </cc:Work>
  </rdf:RDF>
 </metadata>
 <g transform="matrix(.83999 0 0 .83999 .42015 6.9197)">
  <path d="m15.692 6.0545 6.1823 3.9584c0.52083 0.33333 1.2135 0.19267 1.5677-0.31253l6.3542-9.1615c0.36459-0.5156 0.22917-1.2292-0.29167-1.5885-0.52083-0.35933-1.2396-0.2292-1.5989 0.2916l-5.724 8.2448-6.2188-3.9791c-0.2552-0.16667-0.56771-0.2188-0.86979-0.15627-0.29688 0.068-0.55729 0.2448-0.71875 0.5052l-9.4844 14.88c-0.33855 0.53133-0.17709 1.2396 0.35937 1.5781 0.18749 0.12 0.40104 0.17707 0.61459 0.17707 0.3802 0 0.75-0.18747 0.96875-0.5312zm12.385 5.5781-5.6406 5.0781-6.6354-5.1355c-0.12493-0.09867-0.27083-0.16667-0.42708-0.20307l-0.88021-0.2188-1.3021 2.0365 1.3958 0.34373 7.1979 5.5729c0.21355 0.16147 0.45833 0.2448 0.70833 0.2448 0.27604 0 0.55208-0.104 0.77084-0.29693l6.3542-5.724c0.47396-0.42187 0.51041-1.1457 0.08333-1.6145s-1.151-0.5104-1.625-0.08267m-22.49-0.32813 1.724 0.42707 1.2969-2.0364-2.4687-0.61467c-0.61459-0.15093-1.2396 0.224-1.3906 0.83333-0.15625 0.61467 0.21875 1.2344 0.83853 1.3907"/>
 </g>
</svg>
