<?xml version="1.0" encoding="UTF-8"?>
<!-- Created with Inkscape (http://www.inkscape.org/) -->
<svg id="SVGRoot" width="30" height="30" version="1.1" viewBox="0 0 30 29.999999" xmlns="http://www.w3.org/2000/svg" xmlns:cc="http://creativecommons.org/ns#" xmlns:dc="http://purl.org/dc/elements/1.1/" xmlns:rdf="http://www.w3.org/1999/02/22-rdf-syntax-ns#">
 <metadata>
  <rdf:RDF>
   <cc:Work rdf:about="">
    <dc:format>image/svg+xml</dc:format>
    <dc:type rdf:resource="http://purl.org/dc/dcmitype/StillImage"/>
    <dc:title/>
   </cc:Work>
  </rdf:RDF>
 </metadata>
 <g transform="translate(-2.3568 5.3803)">
  <path d="m17.357 18.232c-4.75 0-8.6146-3.8595-8.6146-8.6095s3.8646-8.6145 8.6146-8.6145c4.75 0 8.6146 3.8645 8.6146 8.6145s-3.8646 8.6095-8.6146 8.6095m0-19.688c-6.1042 0-11.073 4.9688-11.073 11.078 0 6.1043 4.9687 11.073 11.073 11.073 6.1042 0 11.073-4.9687 11.073-11.073 0-6.1093-4.9687-11.078-11.073-11.078"/>
  <path d="m21.273 7.4452-1.7396-1.7396-2.1771 2.1771-2.1719-2.1771-1.7448 1.7396 2.1771 2.1771-2.1771 2.1719 1.7448 1.7396 2.1719-2.1719 2.1771 2.1719 1.7396-1.7396-2.1771-2.1719z"/>
 </g>
</svg>
